HIERARCHY
ROOT reference
{
  OFFSET 0 0 0
  CHANNELS 6 Xposition Yposition Zposition Zrotation Xrotation Yrotation
  JOINT root
  {
    OFFSET 0 88.2 0
    CHANNELS 6 Xposition Yposition Zposition Zrotation Xrotation Yrotation
    JOINT Hips
    {
      OFFSET 0 0 0
      CHANNELS 6 Xposition Yposition Zposition Zrotation Xrotation Yrotation
      JOINT Spine
      {
        OFFSET -0.026471 -0.105484 -0.013598
        CHANNELS 6 Xposition Yposition Zposition Zrotation Xrotation Yrotation
        JOINT Spine1
        {
          OFFSET 4.85354 17.1933 5.0275
          CHANNELS 6 Xposition Yposition Zposition Zrotation Xrotation Yrotation
          JOINT Spine2
          {
            OFFSET 3.45712 17.0434 6.48957
            CHANNELS 6 Xposition Yposition Zposition Zrotation Xrotation Yrotation
            JOINT Neck
            {
              OFFSET 5.14072 15.5862 8.66939
              CHANNELS 6 Xposition Yposition Zposition Zrotation Xrotation Yrotation
              JOINT Head
              {
                OFFSET 4.15254 8.55484 6.52395
                CHANNELS 6 Xposition Yposition Zposition Zrotation Xrotation Yrotation
                End Site
                {
                  OFFSET 0 0 0
                }
              }
            }
            JOINT RightShoulder
            {
              OFFSET 3.29962 14.5422 11.6338
              CHANNELS 6 Xposition Yposition Zposition Zrotation Xrotation Yrotation
              JOINT RightArm
              {
                OFFSET -5.3334 -8.03214 12.8704
                CHANNELS 6 Xposition Yposition Zposition Zrotation Xrotation Yrotation
                JOINT RightForearm
                {
                  OFFSET -0.595392 -13.7862 25.9663
                  CHANNELS 6 Xposition Yposition Zposition Zrotation Xrotation Yrotation
                  JOINT RightHand
                  {
                    OFFSET 13.5169 -1.52002 20.8898
                    CHANNELS 6 Xposition Yposition Zposition Zrotation Xrotation Yrotation
                    End Site
                    {
                      OFFSET 0 0 0
                    }
                  }
                }
              }
            }
            JOINT LeftShoulder
            {
              OFFSET 6.99272 16.6182 5.71375
              CHANNELS 6 Xposition Yposition Zposition Zrotation Xrotation Yrotation
              JOINT LeftArm
              {
                OFFSET 6.7187 3.24731 -14.245
                CHANNELS 6 Xposition Yposition Zposition Zrotation Xrotation Yrotation
                JOINT LeftForearm
                {
                  OFFSET -8.81743 -14.5927 -23.9577
                  CHANNELS 6 Xposition Yposition Zposition Zrotation Xrotation Yrotation
                  JOINT LeftHand
                  {
                    OFFSET 10.5264 -21.3111 -7.51208
                    CHANNELS 6 Xposition Yposition Zposition Zrotation Xrotation Yrotation
                    End Site
                    {
                      OFFSET 0 0 0
                    }
                  }
                }
              }
            }
          }
        }
      }
      JOINT RightUpLeg
      {
        OFFSET -4.59322 -0.383102 8.37345
        CHANNELS 6 Xposition Yposition Zposition Zrotation Xrotation Yrotation
        JOINT RightLeg
        {
          OFFSET 10.2081 -39.0447 19.9625
          CHANNELS 6 Xposition Yposition Zposition Zrotation Xrotation Yrotation
          JOINT RightFoot
          {
            OFFSET -4.84356 -40.8753 1.15038
            CHANNELS 6 Xposition Yposition Zposition Zrotation Xrotation Yrotation
            JOINT RightToe
            {
              OFFSET 9.73669 -6.85348 13.5043
              CHANNELS 6 Xposition Yposition Zposition Zrotation Xrotation Yrotation
              End Site
              {
                OFFSET 0 0 0
              }
            }
          }
        }
      }
      JOINT LeftUpLeg
      {
        OFFSET 4.59322 0.383102 -8.37344
        CHANNELS 6 Xposition Yposition Zposition Zrotation Xrotation Yrotation
        JOINT LeftLeg
        {
          OFFSET 5.42531 -42.6881 -13.2473
          CHANNELS 6 Xposition Yposition Zposition Zrotation Xrotation Yrotation
          JOINT LeftFoot
          {
            OFFSET -11.0944 -37.6876 -12.3342
            CHANNELS 6 Xposition Yposition Zposition Zrotation Xrotation Yrotation
            JOINT LeftToe
            {
              OFFSET 16.3568 -7.51904 0.239304
              CHANNELS 6 Xposition Yposition Zposition Zrotation Xrotation Yrotation
              End Site
              {
                OFFSET 0 0 0
              }
            }
          }
        }
      }
    }
  }
}
MOTION
Frames:	4
Frame Time:	0.0333333
0 0 0 0 0 -0 0 88.2 -4e-06 -1.46297 -14.0919 -64.7705 0 0 0 -1.42043 -2.72622 0.965209 -0.026471 -0.105484 -0.013598 2.43726 -4.90356 -0.434955 4.85354 17.1933 5.0275 3.64702 -6.45312 0.443759 3.45712 17.0434 6.48957 2.39186 -4.41595 0.0482914 5.14072 15.5862 8.66939 2.98142 7.97147 19.1693 4.15254 8.55484 6.52395 0.242631 14.0617 25.4243 3.29962 14.5422 11.6338 -5.28761 -3.05839 -8.71638 -5.3334 -8.03214 12.8704 -91.5231 17.5609 83.0137 -0.595392 -13.7862 25.9663 -10.5371 28.5643 -34.1688 13.5169 -1.52002 20.8898 -4.52963 -41.8777 14.6199 6.99272 16.6182 5.71375 -4.49131 -3.13126 -6.36458 6.7187 3.24731 -14.245 -17.2194 -16.0002 -5.74354 -8.81743 -14.5927 -23.9577 -16.2868 14.6103 15.4398 10.5264 -21.3111 -7.51208 -2.6063 3.17938 -6.95872 -4.59322 -0.383102 8.37345 -30.6353 25.2488 19.7245 10.2081 -39.0447 19.9625 9.93994 -12.0137 2.77769 -4.84356 -40.8753 1.15038 6.70939 -5.64299 0.816177 9.73669 -6.85348 13.5043 -1.25035 -1.00046 -0.0540978 4.59322 0.383102 -8.37344 -10.7973 -3.57643 -11.8219 5.42531 -42.6881 -13.2473 6.373 -0.367785 -1.9937 -11.0944 -37.6876 -12.3342 -8.96923 8.87698 4.12214 16.3568 -7.51904 0.239304 -0.698931 1.90033 0.00533664 
0 0 0 0 0 -0 0 88.2 -4e-06 -1.55261 -13.749 -65.2393 0 0 0 -1.2476 -2.38871 0.849774 -0.026471 -0.105484 -0.013598 2.40075 -4.98504 -0.350566 4.85354 17.1933 5.0275 3.58849 -6.58141 0.512892 3.45712 17.0434 6.48957 2.35572 -4.50246 0.101008 5.14072 15.5862 8.66939 3.23438 7.88341 19.352 4.15254 8.55484 6.52395 0.413629 13.674 25.7516 3.29962 14.5422 11.6338 -5.61507 -3.52484 -8.89608 -5.3334 -8.03214 12.8704 -93.3236 20.6538 84.5669 -0.595392 -13.7862 25.9663 -10.5446 28.7007 -34.3246 13.5169 -1.52002 20.8898 -13.8044 -53.0412 22.7933 6.99272 16.6182 5.71375 -4.5249 -3.20194 -6.32628 6.7187 3.24731 -14.245 -17.1276 -16.3678 -7.13891 -8.81743 -14.5927 -23.9577 -17.6057 15.4536 16.7055 10.5264 -21.3111 -7.51208 -4.27372 2.12278 -5.89571 -4.59322 -0.383102 8.37345 -30.3678 24.0454 19.7323 10.2081 -39.0447 19.9625 9.4372 -11.4448 2.59232 -4.84356 -40.8753 1.15038 6.41293 -6.10039 0.788562 9.73669 -6.85348 13.5043 -0.237148 -0.717385 0.016254 4.59322 0.383102 -8.37344 -10.9068 -4.671 -11.7874 5.42531 -42.6881 -13.2473 6.19852 -0.354764 -1.93966 -11.0944 -37.6876 -12.3342 -8.80416 9.53931 4.11663 16.3568 -7.51904 0.239304 -0.683055 1.92562 0.00477251 
0 0 0 0 0 -0 0 88.2 -4e-06 -1.69552 -13.5115 -65.9616 0 0 0 -1.12857 -2.15716 0.769606 -0.026471 -0.105484 -0.013598 2.32657 -5.00854 -0.24473 4.85354 17.1933 5.0275 3.48639 -6.62421 0.625791 3.45712 17.0434 6.48957 2.29424 -4.53019 0.1872 5.14072 15.5862 8.66939 3.58789 7.79324 19.5242 4.15254 8.55484 6.52395 0.748872 13.2106 26.102 3.29962 14.5422 11.6338 -6.28159 -4.31148 -9.407 -5.3334 -8.03214 12.8704 -93.8008 29.3652 82.785 -0.595392 -13.7862 25.9663 -10.4762 27.6474 -33.1247 13.5169 -1.52002 20.8898 -21.6858 -62.2213 27.8345 6.99272 16.6182 5.71375 -4.32723 -3.06197 -6.09278 6.7187 3.24731 -14.245 -17.1969 -16.8826 -8.77872 -8.81743 -14.5927 -23.9577 -18.774 16.1646 17.8281 10.5264 -21.3111 -7.51208 -5.81332 2.33341 -5.50856 -4.59322 -0.383102 8.37345 -30.0564 22.8619 20.0511 10.2081 -39.0447 19.9625 8.77326 -10.6861 2.35433 -4.84356 -40.8753 1.15038 6.1973 -6.55692 0.765755 9.73669 -6.85348 13.5043 0.506017 -0.291381 0.0531094 4.59322 0.383102 -8.37344 -10.9286 -5.56558 -11.5224 5.42531 -42.6881 -13.2473 5.9285 -0.33493 -1.85595 -11.0944 -37.6876 -12.3342 -8.5308 9.98874 4.0773 16.3568 -7.51904 0.239304 -0.667659 1.95012 0.00419232 
0 0 0 0 0 -0 0 88.2 -4e-06 -1.8643 -13.3168 -66.8159 0 0 0 -0.995314 -1.8989 0.680242 -0.026471 -0.105484 -0.013598 2.25743 -5.06103 -0.139993 4.85354 17.1933 5.0275 3.38857 -6.70958 0.73114 3.45712 17.0434 6.48957 2.23467 -4.5869 0.268033 5.14072 15.5862 8.66939 3.90104 7.7999 19.7332 4.15254 8.55484 6.52395 1.06051 12.9395 26.516 3.29962 14.5422 11.6338 -6.79419 -4.86001 -9.8345 -5.3334 -8.03214 12.8704 -94.8521 33.2406 83.4223 -0.595392 -13.7862 25.9663 -10.3545 26.307 -31.6092 13.5169 -1.52002 20.8898 -19.9657 -65.0359 33.5013 6.99272 16.6182 5.71375 -4.28517 -3.06746 -5.98456 6.7187 3.24731 -14.245 -17.409 -16.9891 -10.4166 -8.81743 -14.5927 -23.9577 -19.6649 16.6845 18.6847 10.5264 -21.3111 -7.51208 -7.07979 2.72929 -5.13152 -4.59322 -0.383102 8.37345 -29.7136 21.5994 20.4793 10.2081 -39.0447 19.9625 8.02293 -9.81868 2.09486 -4.84356 -40.8753 1.15038 6.12673 -6.95242 0.760865 9.73669 -6.85348 13.5043 1.07763 0.0687717 0.0778204 4.59322 0.383102 -8.37344 -10.942 -6.45193 -11.1546 5.42531 -42.6881 -13.2473 5.64643 -0.31464 -1.76841 -11.0944 -37.6876 -12.3342 -8.21749 10.3676 4.0399 16.3568 -7.51904 0.239304 -0.652777 1.97382 0.00360411 
